<?xml version="1.0" standalone="no"?>
<!DOCTYPE svg PUBLIC "-//W3C//DTD SVG 20010904//EN"
 "http://www.w3.org/TR/2001/REC-SVG-20010904/DTD/svg10.dtd">
<svg version="1.0" xmlns="http://www.w3.org/2000/svg"
 width="250.000000pt" height="250.000000pt" viewBox="0 0 250.000000 250.000000"
 preserveAspectRatio="xMidYMid meet">
<metadata>
Created by potrace 1.11, written by Peter Selinger 2001-2013
</metadata>
<g transform="translate(0.000000,250.000000) scale(0.100000,-0.100000)"
fill="#000000" stroke="none">
<path d="M620 1095 l0 -155 155 0 155 0 0 155 0 155 -155 0 -155 0 0 -155z"/>
<path d="M1560 1095 l0 -155 310 0 310 0 0 -470 0 -470 160 0 160 0 0 470 0
470 -160 0 -160 0 0 155 0 155 -310 0 -310 0 0 -155z"/>
<path d="M0 470 l0 -470 155 0 155 0 0 470 0 470 -155 0 -155 0 0 -470z"/>
</g>
</svg>
